<mxfile host="app.diagrams.net" modified="2023-04-28T08:10:40.211Z" agent="Mozilla/5.0 (X11; Linux x86_64) AppleWebKit/537.36 (KHTML, like Gecko) Chrome/108.0.0.0 Safari/537.36" version="21.1.2" etag="6jI_ctcLV0Wm0OBGnoQT" type="github">
  <diagram name="Page-1" id="-BioDO1hhMsbEwzINySz">
    <mxGraphModel>
      <root>
        <mxCell id="0" />
        <mxCell id="1" parent="0" />
      </root>
    </mxGraphModel>
  </diagram>
</mxfile>
